<svg width="82" height="74" viewBox="0 0 82 74" fill="none" xmlns="http://www.w3.org/2000/svg">
<path d="M35.0125 11H45.0125V0H61.533L61.5535 0.00195312C69.8315 0.67443 74.6212 3.51492 77.3787 7.2666C80.1185 10.9943 80.7866 15.5369 81.0125 19.4717V33H66.9901C66.9124 34.6398 66.827 36.871 66.8006 38.7568C66.7861 39.7961 66.7891 40.7214 66.8201 41.3828C66.8322 41.6396 66.8512 41.8461 66.8699 42H81.0125V52.0537L81.0008 52.1074C79.6138 58.4373 78.0079 63.0478 74.9735 66.5088C71.9311 69.9786 67.51 72.2309 60.6365 73.9844L60.576 74H44.5125V62.5H36.0125V74H21.5125C19.5238 73.9999 17.1595 73.2424 14.7645 71.9814C12.3606 70.7158 9.88506 68.922 7.66682 66.7988C3.25831 62.5792 -0.23644 56.9572 0.0125235 51.5V41H14.0125V34H0.0125235V19.4873L0.0135 19.4746C0.526275 9.22373 9.2317 0.000188177 20.5125 0H35.0125V11ZM34.4998 18.5C27.3201 18.5 21.4998 24.3203 21.4998 31.5V42.5C21.4998 49.6797 27.3201 55.5 34.4998 55.5H46.4998C53.6794 55.4999 59.4998 49.6796 59.4998 42.5V31.5C59.4998 24.3204 53.6794 18.5001 46.4998 18.5H34.4998Z" fill="#D53A3A"/>
</svg>
