<svg width="383" height="108" viewBox="0 0 383 108" fill="none" xmlns="http://www.w3.org/2000/svg">
<path d="M293 29H278V87C276.236 90.2432 274.429 91.6407 269 93L259 93.5V108H269C281.66 107.383 290 98 293 87V29Z" fill="#D53A3A"/>
<path d="M204.5 88H190V40.5C191.151 32.3124 193.892 29.4846 203 28H248.5C256.419 29.3869 260.339 30.8506 262 40.5V88H247V44C246.148 42.9389 245.422 42.5616 244 42H208C206.402 42.6024 205.672 43.0102 205 44L204.5 88Z" fill="#D53A3A"/>
<path d="M17 88H0V1H17V27C17 27 60 27.5 67 27.5C74 27.5 80 32.5 80 40.5V88H64V45.5C63.9701 42.4582 62.7248 42.0959 60 42H17V88Z" fill="#D53A3A"/>
<path d="M129.013 26H139.013V15H155.533L155.554 15.002C163.831 15.6744 168.621 18.5149 171.379 22.2666C174.118 25.9943 174.787 30.5369 175.013 34.4717V48H160.99C160.912 49.6398 160.827 51.871 160.801 53.7568C160.786 54.7961 160.789 55.7214 160.82 56.3828C160.832 56.6396 160.851 56.8461 160.87 57H175.013V67.0537L175.001 67.1074C173.614 73.4373 172.008 78.0478 168.973 81.5088C165.931 84.9786 161.51 87.2309 154.637 88.9844L154.576 89H138.513V77.5H130.013V89H115.513C113.524 88.9999 111.16 88.2424 108.764 86.9814C106.361 85.7158 103.885 83.922 101.667 81.7988C97.2583 77.5792 93.7636 71.9572 94.0125 66.5V56H108.013V49H94.0125V34.4873L94.0135 34.4746C94.5263 24.2237 103.232 15.0002 114.513 15H129.013V26ZM128.5 33.5C121.32 33.5 115.5 39.3203 115.5 46.5V57.5C115.5 64.6797 121.32 70.5 128.5 70.5H140.5C147.679 70.4999 153.5 64.6796 153.5 57.5V46.5C153.5 39.3204 147.679 33.5001 140.5 33.5H128.5Z" fill="#D53A3A"/>
<rect x="277" width="17" height="17" fill="#D53A3A"/>
<path d="M363.084 28.0068C369.437 29.0843 373.827 30.616 376.927 33.4541C380.033 36.2982 381.772 40.3871 382.99 46.4004L383 46.4502V86.6543L382.913 86.7812C382.527 87.3487 382.147 87.7402 381.672 88.0088C381.205 88.2723 380.687 88.3933 380.081 88.4932L380.041 88.5H317.922L317.848 88.4766C314.633 87.4517 312.37 86.3265 310.621 84.6436C308.873 82.9609 307.682 80.7617 306.531 77.6748L306.5 77.5898V64.4023L306.537 64.3115C307.712 61.4318 308.854 59.3146 310.498 57.625C312.145 55.9323 314.26 54.7043 317.321 53.5332L317.407 53.5H366V44.6445C365.649 44.0895 365.297 43.7743 364.87 43.5547C364.398 43.3121 363.81 43.1699 362.95 43H307.5V28H363.042L363.084 28.0068ZM324 66C322.895 66 322 66.8954 322 68V75C322 76.1046 322.895 77 324 77H364C365.105 77 366 76.1046 366 75V68C366 66.8954 365.105 66 364 66H324Z" fill="#D53A3A"/>
</svg>
